<?xml version="1.0" encoding="utf-8" standalone="no"?>
<!DOCTYPE svg PUBLIC "-//W3C//DTD SVG 1.1//EN"
  "http://www.w3.org/Graphics/SVG/1.1/DTD/svg11.dtd">
<!-- Created with matplotlib (https://matplotlib.org/) -->
<svg height="420.9175pt" version="1.1" viewBox="0 0 750.804687 420.9175" width="750.804687pt" xmlns="http://www.w3.org/2000/svg" xmlns:xlink="http://www.w3.org/1999/xlink">
 <metadata>
  <rdf:RDF xmlns:cc="http://creativecommons.org/ns#" xmlns:dc="http://purl.org/dc/elements/1.1/" xmlns:rdf="http://www.w3.org/1999/02/22-rdf-syntax-ns#">
   <cc:Work>
    <dc:type rdf:resource="http://purl.org/dc/dcmitype/StillImage"/>
    <dc:date>2020-12-20T01:24:15.552844</dc:date>
    <dc:format>image/svg+xml</dc:format>
    <dc:creator>
     <cc:Agent>
      <dc:title>Matplotlib v3.3.2, https://matplotlib.org/</dc:title>
     </cc:Agent>
    </dc:creator>
   </cc:Work>
  </rdf:RDF>
 </metadata>
 <defs>
  <style type="text/css">*{stroke-linecap:butt;stroke-linejoin:round;}</style>
 </defs>
 <g id="figure_1">
  <g id="patch_1">
   <path d="M 0 420.9175 
L 750.804687 420.9175 
L 750.804687 0 
L 0 0 
z
" style="fill:none;"/>
  </g>
  <g id="axes_1">
   <g id="patch_2">
    <path d="M 92.189688 346.157812 
L 725.789688 346.157812 
L 725.789688 17.837812 
L 92.189688 17.837812 
z
" style="fill:none;"/>
   </g>
   <g id="matplotlib.axis_1">
    <g id="xtick_1">
     <g id="line2d_1">
      <defs>
       <path d="M 0 0 
L 0 3.5 
" id="m699733195c" style="stroke:#000000;stroke-width:0.8;"/>
      </defs>
      <g>
       <use style="stroke:#000000;stroke-width:0.8;" x="208.565198" xlink:href="#m699733195c" y="346.157812"/>
      </g>
     </g>
     <g id="text_1">
      <!-- 2 -->
      <g transform="translate(199.657698 374.433437)scale(0.28 -0.28)">
       <defs>
        <path d="M 12.796875 55.515625 
L 7.328125 55.515625 
L 7.328125 68.5 
Q 12.546875 71.296875 17.84375 72.75 
Q 23.140625 74.21875 28.21875 74.21875 
Q 39.59375 74.21875 46.1875 68.703125 
Q 52.78125 63.1875 52.78125 53.71875 
Q 52.78125 43.015625 37.84375 28.125 
Q 36.671875 27 36.078125 26.421875 
L 17.671875 8.015625 
L 48.09375 8.015625 
L 48.09375 17 
L 53.8125 17 
L 53.8125 0 
L 6.78125 0 
L 6.78125 5.328125 
L 28.90625 27.390625 
Q 36.234375 34.71875 39.359375 40.84375 
Q 42.484375 46.96875 42.484375 53.71875 
Q 42.484375 61.078125 38.640625 65.234375 
Q 34.8125 69.390625 28.078125 69.390625 
Q 21.09375 69.390625 17.28125 65.921875 
Q 13.484375 62.453125 12.796875 55.515625 
z
" id="DejaVuSerif-50"/>
       </defs>
       <use xlink:href="#DejaVuSerif-50"/>
      </g>
     </g>
    </g>
    <g id="xtick_2">
     <g id="line2d_2">
      <g>
       <use style="stroke:#000000;stroke-width:0.8;" x="337.87132" xlink:href="#m699733195c" y="346.157812"/>
      </g>
     </g>
     <g id="text_2">
      <!-- 4 -->
      <g transform="translate(328.96382 374.433437)scale(0.28 -0.28)">
       <defs>
        <path d="M 34.90625 24.703125 
L 34.90625 63.484375 
L 10.015625 24.703125 
z
M 56.390625 0 
L 23.1875 0 
L 23.1875 5.171875 
L 34.90625 5.171875 
L 34.90625 19.484375 
L 3.078125 19.484375 
L 3.078125 24.8125 
L 35.015625 74.21875 
L 44.671875 74.21875 
L 44.671875 24.703125 
L 58.59375 24.703125 
L 58.59375 19.484375 
L 44.671875 19.484375 
L 44.671875 5.171875 
L 56.390625 5.171875 
z
" id="DejaVuSerif-52"/>
       </defs>
       <use xlink:href="#DejaVuSerif-52"/>
      </g>
     </g>
    </g>
    <g id="xtick_3">
     <g id="line2d_3">
      <g>
       <use style="stroke:#000000;stroke-width:0.8;" x="467.177443" xlink:href="#m699733195c" y="346.157812"/>
      </g>
     </g>
     <g id="text_3">
      <!-- 6 -->
      <g transform="translate(458.269943 374.433437)scale(0.28 -0.28)">
       <defs>
        <path d="M 32.71875 3.421875 
Q 39.59375 3.421875 43.296875 8.46875 
Q 47.015625 13.53125 47.015625 23 
Q 47.015625 32.46875 43.296875 37.515625 
Q 39.59375 42.578125 32.71875 42.578125 
Q 25.734375 42.578125 22.0625 37.6875 
Q 18.40625 32.8125 18.40625 23.578125 
Q 18.40625 13.875 22.109375 8.640625 
Q 25.828125 3.421875 32.71875 3.421875 
z
M 16.796875 40.140625 
Q 20.125 43.796875 24.3125 45.59375 
Q 28.515625 47.40625 33.796875 47.40625 
Q 44.671875 47.40625 51 40.859375 
Q 57.328125 34.328125 57.328125 23 
Q 57.328125 11.921875 50.515625 5.25 
Q 43.703125 -1.421875 32.328125 -1.421875 
Q 19.96875 -1.421875 13.328125 7.78125 
Q 6.6875 17 6.6875 34.078125 
Q 6.6875 53.21875 14.546875 63.71875 
Q 22.40625 74.21875 36.71875 74.21875 
Q 40.578125 74.21875 44.828125 73.484375 
Q 49.078125 72.75 53.515625 71.296875 
L 53.515625 59.28125 
L 48 59.28125 
Q 47.40625 64.203125 44.234375 66.796875 
Q 41.0625 69.390625 35.6875 69.390625 
Q 26.21875 69.390625 21.578125 62.203125 
Q 16.9375 55.03125 16.796875 40.140625 
z
" id="DejaVuSerif-54"/>
       </defs>
       <use xlink:href="#DejaVuSerif-54"/>
      </g>
     </g>
    </g>
    <g id="xtick_4">
     <g id="line2d_4">
      <g>
       <use style="stroke:#000000;stroke-width:0.8;" x="596.483565" xlink:href="#m699733195c" y="346.157812"/>
      </g>
     </g>
     <g id="text_4">
      <!-- 8 -->
      <g transform="translate(587.576065 374.433437)scale(0.28 -0.28)">
       <defs>
        <path d="M 46.578125 19.921875 
Q 46.578125 27.734375 42.6875 32.046875 
Q 38.8125 36.375 31.78125 36.375 
Q 24.75 36.375 20.875 32.046875 
Q 17 27.734375 17 19.921875 
Q 17 12.0625 20.875 7.734375 
Q 24.75 3.421875 31.78125 3.421875 
Q 38.8125 3.421875 42.6875 7.734375 
Q 46.578125 12.0625 46.578125 19.921875 
z
M 44.578125 55.328125 
Q 44.578125 61.96875 41.203125 65.671875 
Q 37.84375 69.390625 31.78125 69.390625 
Q 25.78125 69.390625 22.390625 65.671875 
Q 19 61.96875 19 55.328125 
Q 19 48.640625 22.390625 44.921875 
Q 25.78125 41.21875 31.78125 41.21875 
Q 37.84375 41.21875 41.203125 44.921875 
Q 44.578125 48.640625 44.578125 55.328125 
z
M 39.3125 38.8125 
Q 47.609375 37.703125 52.25 32.6875 
Q 56.890625 27.6875 56.890625 19.921875 
Q 56.890625 9.671875 50.390625 4.125 
Q 43.890625 -1.421875 31.78125 -1.421875 
Q 19.734375 -1.421875 13.203125 4.125 
Q 6.6875 9.671875 6.6875 19.921875 
Q 6.6875 27.6875 11.328125 32.6875 
Q 15.96875 37.703125 24.3125 38.8125 
Q 16.9375 40.140625 13 44.40625 
Q 9.078125 48.6875 9.078125 55.328125 
Q 9.078125 64.109375 15.125 69.15625 
Q 21.1875 74.21875 31.78125 74.21875 
Q 42.390625 74.21875 48.4375 69.15625 
Q 54.5 64.109375 54.5 55.328125 
Q 54.5 48.6875 50.5625 44.40625 
Q 46.625 40.140625 39.3125 38.8125 
z
" id="DejaVuSerif-56"/>
       </defs>
       <use xlink:href="#DejaVuSerif-56"/>
      </g>
     </g>
    </g>
    <g id="xtick_5">
     <g id="line2d_5">
      <g>
       <use style="stroke:#000000;stroke-width:0.8;" x="725.789687" xlink:href="#m699733195c" y="346.157812"/>
      </g>
     </g>
     <g id="text_5">
      <!-- 10 -->
      <g transform="translate(707.974687 374.433437)scale(0.28 -0.28)">
       <defs>
        <path d="M 14.203125 0 
L 14.203125 5.171875 
L 26.90625 5.171875 
L 26.90625 65.828125 
L 12.203125 56.296875 
L 12.203125 62.703125 
L 29.984375 74.21875 
L 36.71875 74.21875 
L 36.71875 5.171875 
L 49.421875 5.171875 
L 49.421875 0 
z
" id="DejaVuSerif-49"/>
        <path d="M 31.78125 3.421875 
Q 39.265625 3.421875 42.96875 11.625 
Q 46.6875 19.828125 46.6875 36.375 
Q 46.6875 52.984375 42.96875 61.1875 
Q 39.265625 69.390625 31.78125 69.390625 
Q 24.3125 69.390625 20.59375 61.1875 
Q 16.890625 52.984375 16.890625 36.375 
Q 16.890625 19.828125 20.59375 11.625 
Q 24.3125 3.421875 31.78125 3.421875 
z
M 31.78125 -1.421875 
Q 19.921875 -1.421875 13.25 8.53125 
Q 6.59375 18.5 6.59375 36.375 
Q 6.59375 54.296875 13.25 64.25 
Q 19.921875 74.21875 31.78125 74.21875 
Q 43.703125 74.21875 50.34375 64.25 
Q 56.984375 54.296875 56.984375 36.375 
Q 56.984375 18.5 50.34375 8.53125 
Q 43.703125 -1.421875 31.78125 -1.421875 
z
" id="DejaVuSerif-48"/>
       </defs>
       <use xlink:href="#DejaVuSerif-49"/>
       <use x="63.623047" xlink:href="#DejaVuSerif-48"/>
      </g>
     </g>
    </g>
    <g id="text_6">
     <!-- Period (days) -->
     <g transform="translate(308.904531 407.051875)scale(0.3 -0.3)">
      <defs>
       <path d="M 24.703125 37.109375 
L 37.59375 37.109375 
Q 44.875 37.109375 48.671875 41.03125 
Q 52.484375 44.96875 52.484375 52.390625 
Q 52.484375 59.859375 48.671875 63.765625 
Q 44.875 67.671875 37.59375 67.671875 
L 24.703125 67.671875 
z
M 5.515625 0 
L 5.515625 5.171875 
L 14.796875 5.171875 
L 14.796875 67.671875 
L 5.515625 67.671875 
L 5.515625 72.90625 
L 39.984375 72.90625 
Q 50.921875 72.90625 57.3125 67.359375 
Q 63.71875 61.8125 63.71875 52.390625 
Q 63.71875 43.015625 57.3125 37.453125 
Q 50.921875 31.890625 39.984375 31.890625 
L 24.703125 31.890625 
L 24.703125 5.171875 
L 35.984375 5.171875 
L 35.984375 0 
z
" id="DejaVuSerif-80"/>
       <path d="M 54.203125 25 
L 15.484375 25 
L 15.484375 24.609375 
Q 15.484375 14.109375 19.4375 8.765625 
Q 23.390625 3.421875 31.109375 3.421875 
Q 37.015625 3.421875 40.796875 6.515625 
Q 44.578125 9.625 46.09375 15.71875 
L 53.328125 15.71875 
Q 51.171875 7.171875 45.375 2.875 
Q 39.59375 -1.421875 30.171875 -1.421875 
Q 18.796875 -1.421875 11.890625 6.078125 
Q 4.984375 13.578125 4.984375 25.984375 
Q 4.984375 38.28125 11.765625 45.796875 
Q 18.5625 53.328125 29.59375 53.328125 
Q 41.359375 53.328125 47.65625 46.0625 
Q 53.953125 38.8125 54.203125 25 
z
M 43.609375 30.171875 
Q 43.3125 39.265625 39.765625 43.875 
Q 36.234375 48.484375 29.59375 48.484375 
Q 23.390625 48.484375 19.828125 43.84375 
Q 16.265625 39.203125 15.484375 30.171875 
z
" id="DejaVuSerif-101"/>
       <path d="M 47.796875 52 
L 47.796875 39.015625 
L 42.625 39.015625 
Q 42.390625 42.875 40.484375 44.78125 
Q 38.578125 46.6875 34.90625 46.6875 
Q 28.265625 46.6875 24.71875 42.09375 
Q 21.1875 37.5 21.1875 28.90625 
L 21.1875 5.171875 
L 31.59375 5.171875 
L 31.59375 0 
L 4.109375 0 
L 4.109375 5.171875 
L 12.203125 5.171875 
L 12.203125 46.78125 
L 3.609375 46.78125 
L 3.609375 51.90625 
L 21.1875 51.90625 
L 21.1875 42.671875 
Q 23.828125 48.09375 27.96875 50.703125 
Q 32.125 53.328125 38.09375 53.328125 
Q 40.28125 53.328125 42.703125 52.984375 
Q 45.125 52.640625 47.796875 52 
z
" id="DejaVuSerif-114"/>
       <path d="M 9.71875 68.015625 
Q 9.71875 70.265625 11.34375 71.921875 
Q 12.984375 73.578125 15.28125 73.578125 
Q 17.53125 73.578125 19.15625 71.921875 
Q 20.796875 70.265625 20.796875 68.015625 
Q 20.796875 65.71875 19.1875 64.109375 
Q 17.578125 62.5 15.28125 62.5 
Q 12.984375 62.5 11.34375 64.109375 
Q 9.71875 65.71875 9.71875 68.015625 
z
M 21.1875 5.171875 
L 29.6875 5.171875 
L 29.6875 0 
L 3.609375 0 
L 3.609375 5.171875 
L 12.203125 5.171875 
L 12.203125 46.6875 
L 3.609375 46.6875 
L 3.609375 51.90625 
L 21.1875 51.90625 
z
" id="DejaVuSerif-105"/>
       <path d="M 30.078125 3.421875 
Q 37.3125 3.421875 40.984375 9.125 
Q 44.671875 14.84375 44.671875 25.984375 
Q 44.671875 37.109375 40.984375 42.796875 
Q 37.3125 48.484375 30.078125 48.484375 
Q 22.859375 48.484375 19.171875 42.796875 
Q 15.484375 37.109375 15.484375 25.984375 
Q 15.484375 14.84375 19.1875 9.125 
Q 22.90625 3.421875 30.078125 3.421875 
z
M 30.078125 -1.421875 
Q 18.75 -1.421875 11.859375 6.078125 
Q 4.984375 13.578125 4.984375 25.984375 
Q 4.984375 38.375 11.84375 45.84375 
Q 18.703125 53.328125 30.078125 53.328125 
Q 41.453125 53.328125 48.3125 45.84375 
Q 55.171875 38.375 55.171875 25.984375 
Q 55.171875 13.578125 48.3125 6.078125 
Q 41.453125 -1.421875 30.078125 -1.421875 
z
" id="DejaVuSerif-111"/>
       <path d="M 52.484375 5.171875 
L 61.078125 5.171875 
L 61.078125 0 
L 43.5 0 
L 43.5 8.109375 
Q 40.875 3.21875 36.796875 0.890625 
Q 32.71875 -1.421875 26.703125 -1.421875 
Q 17.140625 -1.421875 11.0625 6.171875 
Q 4.984375 13.765625 4.984375 25.984375 
Q 4.984375 38.1875 11.03125 45.75 
Q 17.09375 53.328125 26.703125 53.328125 
Q 32.71875 53.328125 36.796875 51 
Q 40.875 48.6875 43.5 43.796875 
L 43.5 70.796875 
L 35.015625 70.796875 
L 35.015625 75.984375 
L 52.484375 75.984375 
z
M 43.5 23.390625 
L 43.5 28.515625 
Q 43.5 37.84375 39.90625 42.765625 
Q 36.328125 47.703125 29.5 47.703125 
Q 22.5625 47.703125 19.015625 42.234375 
Q 15.484375 36.765625 15.484375 25.984375 
Q 15.484375 15.234375 19.015625 9.71875 
Q 22.5625 4.203125 29.5 4.203125 
Q 36.328125 4.203125 39.90625 9.109375 
Q 43.5 14.015625 43.5 23.390625 
z
" id="DejaVuSerif-100"/>
       <path id="DejaVuSerif-32"/>
       <path d="M 31.890625 -15.578125 
Q 20.015625 -10.25 13.953125 1.296875 
Q 7.90625 12.84375 7.90625 30.171875 
Q 7.90625 47.5625 13.953125 59.109375 
Q 20.015625 70.65625 31.890625 75.984375 
L 31.890625 71.1875 
Q 24.359375 66.015625 21.09375 56.609375 
Q 17.828125 47.21875 17.828125 30.171875 
Q 17.828125 13.1875 21.09375 3.78125 
Q 24.359375 -5.609375 31.890625 -10.796875 
z
" id="DejaVuSerif-40"/>
       <path d="M 39.796875 16.3125 
L 39.796875 27.296875 
L 28.21875 27.296875 
Q 21.53125 27.296875 18.25 24.40625 
Q 14.984375 21.53125 14.984375 15.578125 
Q 14.984375 10.15625 18.296875 6.984375 
Q 21.625 3.8125 27.296875 3.8125 
Q 32.90625 3.8125 36.34375 7.28125 
Q 39.796875 10.75 39.796875 16.3125 
z
M 48.78125 32.421875 
L 48.78125 5.171875 
L 56.78125 5.171875 
L 56.78125 0 
L 39.796875 0 
L 39.796875 5.609375 
Q 36.8125 2 32.90625 0.28125 
Q 29 -1.421875 23.78125 -1.421875 
Q 15.140625 -1.421875 10.0625 3.171875 
Q 4.984375 7.765625 4.984375 15.578125 
Q 4.984375 23.640625 10.796875 28.078125 
Q 16.609375 32.515625 27.203125 32.515625 
L 39.796875 32.515625 
L 39.796875 36.078125 
Q 39.796875 42 36.203125 45.234375 
Q 32.625 48.484375 26.125 48.484375 
Q 20.75 48.484375 17.578125 46.046875 
Q 14.40625 43.609375 13.625 38.8125 
L 8.984375 38.8125 
L 8.984375 49.3125 
Q 13.671875 51.3125 18.09375 52.3125 
Q 22.515625 53.328125 26.703125 53.328125 
Q 37.5 53.328125 43.140625 47.96875 
Q 48.78125 42.625 48.78125 32.421875 
z
" id="DejaVuSerif-97"/>
       <path d="M 21.578125 -9.515625 
L 25 -0.875 
L 5.609375 46.6875 
L -0.296875 46.6875 
L -0.296875 51.90625 
L 23.578125 51.90625 
L 23.578125 46.6875 
L 15.28125 46.6875 
L 29.890625 10.984375 
L 44.484375 46.6875 
L 36.71875 46.6875 
L 36.71875 51.90625 
L 56.203125 51.90625 
L 56.203125 46.6875 
L 50.390625 46.6875 
L 26.609375 -11.71875 
Q 24.171875 -17.78125 21.1875 -20 
Q 18.21875 -22.21875 12.796875 -22.21875 
Q 10.5 -22.21875 8.078125 -21.828125 
Q 5.671875 -21.4375 3.21875 -20.703125 
L 3.21875 -10.796875 
L 7.8125 -10.796875 
Q 8.109375 -14.109375 9.5 -15.546875 
Q 10.890625 -17 13.8125 -17 
Q 16.5 -17 18.140625 -15.5 
Q 19.78125 -14.015625 21.578125 -9.515625 
z
" id="DejaVuSerif-121"/>
       <path d="M 5.609375 2.875 
L 5.609375 14.984375 
L 10.796875 14.984375 
Q 10.984375 9.1875 14.421875 6.296875 
Q 17.875 3.421875 24.609375 3.421875 
Q 30.671875 3.421875 33.84375 5.6875 
Q 37.015625 7.953125 37.015625 12.3125 
Q 37.015625 15.71875 34.6875 17.8125 
Q 32.375 19.921875 24.90625 22.3125 
L 18.40625 24.515625 
Q 11.71875 26.65625 8.71875 29.875 
Q 5.71875 33.109375 5.71875 38.09375 
Q 5.71875 45.21875 10.9375 49.265625 
Q 16.15625 53.328125 25.390625 53.328125 
Q 29.5 53.328125 34.03125 52.25 
Q 38.578125 51.171875 43.40625 49.125 
L 43.40625 37.796875 
L 38.234375 37.796875 
Q 38.03125 42.828125 34.703125 45.65625 
Q 31.390625 48.484375 25.6875 48.484375 
Q 20.015625 48.484375 17.109375 46.484375 
Q 14.203125 44.484375 14.203125 40.484375 
Q 14.203125 37.203125 16.40625 35.21875 
Q 18.609375 33.25 25.203125 31.203125 
L 32.328125 29 
Q 39.703125 26.703125 42.9375 23.265625 
Q 46.1875 19.828125 46.1875 14.40625 
Q 46.1875 7.03125 40.546875 2.796875 
Q 34.90625 -1.421875 25 -1.421875 
Q 19.96875 -1.421875 15.1875 -0.34375 
Q 10.40625 0.734375 5.609375 2.875 
z
" id="DejaVuSerif-115"/>
       <path d="M 7.078125 -15.578125 
L 7.078125 -10.796875 
Q 14.59375 -5.609375 17.890625 3.78125 
Q 21.1875 13.1875 21.1875 30.171875 
Q 21.1875 47.21875 17.890625 56.609375 
Q 14.59375 66.015625 7.078125 71.1875 
L 7.078125 75.984375 
Q 19 70.65625 25.046875 59.109375 
Q 31.109375 47.5625 31.109375 30.171875 
Q 31.109375 12.84375 25.046875 1.296875 
Q 19 -10.25 7.078125 -15.578125 
z
" id="DejaVuSerif-41"/>
      </defs>
      <use xlink:href="#DejaVuSerif-80"/>
      <use x="62.785156" xlink:href="#DejaVuSerif-101"/>
      <use x="121.964844" xlink:href="#DejaVuSerif-114"/>
      <use x="169.767578" xlink:href="#DejaVuSerif-105"/>
      <use x="201.75" xlink:href="#DejaVuSerif-111"/>
      <use x="261.955078" xlink:href="#DejaVuSerif-100"/>
      <use x="325.96875" xlink:href="#DejaVuSerif-32"/>
      <use x="357.755859" xlink:href="#DejaVuSerif-40"/>
      <use x="396.769531" xlink:href="#DejaVuSerif-100"/>
      <use x="460.783203" xlink:href="#DejaVuSerif-97"/>
      <use x="520.402344" xlink:href="#DejaVuSerif-121"/>
      <use x="576.896484" xlink:href="#DejaVuSerif-115"/>
      <use x="628.214844" xlink:href="#DejaVuSerif-41"/>
     </g>
    </g>
   </g>
   <g id="matplotlib.axis_2">
    <g id="ytick_1">
     <g id="line2d_6">
      <defs>
       <path d="M 0 0 
L -3.5 0 
" id="mee3f2d5e4f" style="stroke:#000000;stroke-width:0.8;"/>
      </defs>
      <g>
       <use style="stroke:#000000;stroke-width:0.8;" x="92.189688" xlink:href="#mee3f2d5e4f" y="346.157812"/>
      </g>
     </g>
     <g id="text_7">
      <!-- 0.0 -->
      <g transform="translate(40.660938 356.795625)scale(0.28 -0.28)">
       <defs>
        <path d="M 9.421875 5.078125 
Q 9.421875 7.8125 11.28125 9.71875 
Q 13.140625 11.625 15.921875 11.625 
Q 18.609375 11.625 20.5 9.71875 
Q 22.40625 7.8125 22.40625 5.078125 
Q 22.40625 2.390625 20.5 0.484375 
Q 18.609375 -1.421875 15.921875 -1.421875 
Q 13.140625 -1.421875 11.28125 0.453125 
Q 9.421875 2.34375 9.421875 5.078125 
z
" id="DejaVuSerif-46"/>
       </defs>
       <use xlink:href="#DejaVuSerif-48"/>
       <use x="63.623047" xlink:href="#DejaVuSerif-46"/>
       <use x="95.410156" xlink:href="#DejaVuSerif-48"/>
      </g>
     </g>
    </g>
    <g id="ytick_2">
     <g id="line2d_7">
      <g>
       <use style="stroke:#000000;stroke-width:0.8;" x="92.189688" xlink:href="#mee3f2d5e4f" y="280.493812"/>
      </g>
     </g>
     <g id="text_8">
      <!-- 0.2 -->
      <g transform="translate(40.660938 291.131625)scale(0.28 -0.28)">
       <use xlink:href="#DejaVuSerif-48"/>
       <use x="63.623047" xlink:href="#DejaVuSerif-46"/>
       <use x="95.410156" xlink:href="#DejaVuSerif-50"/>
      </g>
     </g>
    </g>
    <g id="ytick_3">
     <g id="line2d_8">
      <g>
       <use style="stroke:#000000;stroke-width:0.8;" x="92.189688" xlink:href="#mee3f2d5e4f" y="214.829812"/>
      </g>
     </g>
     <g id="text_9">
      <!-- 0.4 -->
      <g transform="translate(40.660938 225.467625)scale(0.28 -0.28)">
       <use xlink:href="#DejaVuSerif-48"/>
       <use x="63.623047" xlink:href="#DejaVuSerif-46"/>
       <use x="95.410156" xlink:href="#DejaVuSerif-52"/>
      </g>
     </g>
    </g>
    <g id="ytick_4">
     <g id="line2d_9">
      <g>
       <use style="stroke:#000000;stroke-width:0.8;" x="92.189688" xlink:href="#mee3f2d5e4f" y="149.165812"/>
      </g>
     </g>
     <g id="text_10">
      <!-- 0.6 -->
      <g transform="translate(40.660938 159.803625)scale(0.28 -0.28)">
       <use xlink:href="#DejaVuSerif-48"/>
       <use x="63.623047" xlink:href="#DejaVuSerif-46"/>
       <use x="95.410156" xlink:href="#DejaVuSerif-54"/>
      </g>
     </g>
    </g>
    <g id="ytick_5">
     <g id="line2d_10">
      <g>
       <use style="stroke:#000000;stroke-width:0.8;" x="92.189688" xlink:href="#mee3f2d5e4f" y="83.501812"/>
      </g>
     </g>
     <g id="text_11">
      <!-- 0.8 -->
      <g transform="translate(40.660938 94.139625)scale(0.28 -0.28)">
       <use xlink:href="#DejaVuSerif-48"/>
       <use x="63.623047" xlink:href="#DejaVuSerif-46"/>
       <use x="95.410156" xlink:href="#DejaVuSerif-56"/>
      </g>
     </g>
    </g>
    <g id="ytick_6">
     <g id="line2d_11">
      <g>
       <use style="stroke:#000000;stroke-width:0.8;" x="92.189688" xlink:href="#mee3f2d5e4f" y="17.837812"/>
      </g>
     </g>
     <g id="text_12">
      <!-- 1.0 -->
      <g transform="translate(40.660938 28.475625)scale(0.28 -0.28)">
       <use xlink:href="#DejaVuSerif-49"/>
       <use x="63.623047" xlink:href="#DejaVuSerif-46"/>
       <use x="95.410156" xlink:href="#DejaVuSerif-48"/>
      </g>
     </g>
    </g>
    <g id="text_13">
     <!-- Lomb-Scargle Power -->
     <g transform="translate(29.995313 340.128281)rotate(-90)scale(0.3 -0.3)">
      <defs>
       <path d="M 5.515625 0 
L 5.515625 5.171875 
L 14.796875 5.171875 
L 14.796875 67.671875 
L 5.515625 67.671875 
L 5.515625 72.90625 
L 33.984375 72.90625 
L 33.984375 67.671875 
L 24.703125 67.671875 
L 24.703125 6 
L 58.015625 6 
L 58.015625 18.21875 
L 64.015625 18.21875 
L 64.015625 0 
z
" id="DejaVuSerif-76"/>
       <path d="M 51.8125 41.796875 
Q 54.390625 47.515625 58.421875 50.421875 
Q 62.453125 53.328125 67.828125 53.328125 
Q 75.984375 53.328125 79.984375 48.265625 
Q 83.984375 43.21875 83.984375 33.015625 
L 83.984375 5.171875 
L 92.09375 5.171875 
L 92.09375 0 
L 67.1875 0 
L 67.1875 5.171875 
L 75 5.171875 
L 75 31.984375 
Q 75 39.9375 72.65625 43.3125 
Q 70.3125 46.6875 64.890625 46.6875 
Q 58.890625 46.6875 55.734375 42.140625 
Q 52.59375 37.59375 52.59375 28.90625 
L 52.59375 5.171875 
L 60.40625 5.171875 
L 60.40625 0 
L 35.796875 0 
L 35.796875 5.171875 
L 43.609375 5.171875 
L 43.609375 32.328125 
Q 43.609375 40.09375 41.265625 43.390625 
Q 38.921875 46.6875 33.5 46.6875 
Q 27.484375 46.6875 24.328125 42.140625 
Q 21.1875 37.59375 21.1875 28.90625 
L 21.1875 5.171875 
L 29 5.171875 
L 29 0 
L 4.109375 0 
L 4.109375 5.171875 
L 12.203125 5.171875 
L 12.203125 46.78125 
L 3.609375 46.78125 
L 3.609375 51.90625 
L 21.1875 51.90625 
L 21.1875 42.671875 
Q 23.6875 47.859375 27.53125 50.59375 
Q 31.390625 53.328125 36.28125 53.328125 
Q 42.328125 53.328125 46.375 50.3125 
Q 50.4375 47.3125 51.8125 41.796875 
z
" id="DejaVuSerif-109"/>
       <path d="M 11.53125 5.171875 
L 11.53125 70.796875 
L 2.875 70.796875 
L 2.875 75.984375 
L 20.515625 75.984375 
L 20.515625 43.796875 
Q 23.140625 48.6875 27.21875 51 
Q 31.296875 53.328125 37.3125 53.328125 
Q 46.875 53.328125 52.921875 45.75 
Q 58.984375 38.1875 58.984375 25.984375 
Q 58.984375 13.765625 52.921875 6.171875 
Q 46.875 -1.421875 37.3125 -1.421875 
Q 31.296875 -1.421875 27.21875 0.890625 
Q 23.140625 3.21875 20.515625 8.109375 
L 20.515625 0 
L 2.875 0 
L 2.875 5.171875 
z
M 20.515625 23.390625 
Q 20.515625 14.015625 24.09375 9.109375 
Q 27.6875 4.203125 34.515625 4.203125 
Q 41.40625 4.203125 44.9375 9.71875 
Q 48.484375 15.234375 48.484375 25.984375 
Q 48.484375 36.765625 44.9375 42.234375 
Q 41.40625 47.703125 34.515625 47.703125 
Q 27.6875 47.703125 24.09375 42.765625 
Q 20.515625 37.84375 20.515625 28.515625 
z
" id="DejaVuSerif-98"/>
       <path d="M 4.390625 30.609375 
L 29.390625 30.609375 
L 29.390625 23 
L 4.390625 23 
z
" id="DejaVuSerif-45"/>
       <path d="M 9.28125 3.515625 
L 9.28125 20.125 
L 14.890625 20.0625 
Q 15.140625 11.765625 19.703125 7.78125 
Q 24.265625 3.8125 33.59375 3.8125 
Q 42.28125 3.8125 46.84375 7.25 
Q 51.421875 10.6875 51.421875 17.28125 
Q 51.421875 22.5625 48.65625 25.390625 
Q 45.90625 28.21875 37.015625 30.90625 
L 27.390625 33.796875 
Q 16.9375 36.96875 12.671875 41.703125 
Q 8.40625 46.4375 8.40625 54.6875 
Q 8.40625 63.96875 14.984375 69.09375 
Q 21.578125 74.21875 33.5 74.21875 
Q 38.578125 74.21875 44.625 73.109375 
Q 50.6875 72.015625 57.515625 69.921875 
L 57.515625 54.390625 
L 52 54.390625 
Q 51.171875 62.109375 46.84375 65.546875 
Q 42.53125 69 33.6875 69 
Q 25.984375 69 21.953125 65.84375 
Q 17.921875 62.703125 17.921875 56.6875 
Q 17.921875 51.46875 20.9375 48.484375 
Q 23.96875 45.515625 33.796875 42.578125 
L 42.828125 39.890625 
Q 52.734375 36.921875 56.953125 32.296875 
Q 61.1875 27.6875 61.1875 19.921875 
Q 61.1875 9.328125 54.390625 3.953125 
Q 47.609375 -1.421875 34.1875 -1.421875 
Q 28.171875 -1.421875 21.9375 -0.1875 
Q 15.71875 1.03125 9.28125 3.515625 
z
" id="DejaVuSerif-83"/>
       <path d="M 51.421875 15.578125 
Q 49.515625 7.28125 44.09375 2.921875 
Q 38.671875 -1.421875 30.078125 -1.421875 
Q 18.75 -1.421875 11.859375 6.078125 
Q 4.984375 13.578125 4.984375 25.984375 
Q 4.984375 38.421875 11.859375 45.875 
Q 18.75 53.328125 30.078125 53.328125 
Q 35.015625 53.328125 39.890625 52.171875 
Q 44.78125 51.03125 49.703125 48.6875 
L 49.703125 35.40625 
L 44.484375 35.40625 
Q 43.453125 42.234375 40.015625 45.359375 
Q 36.578125 48.484375 30.171875 48.484375 
Q 22.90625 48.484375 19.1875 42.84375 
Q 15.484375 37.203125 15.484375 25.984375 
Q 15.484375 14.75 19.171875 9.078125 
Q 22.859375 3.421875 30.171875 3.421875 
Q 35.984375 3.421875 39.453125 6.4375 
Q 42.921875 9.46875 44.1875 15.578125 
z
" id="DejaVuSerif-99"/>
       <path d="M 52.484375 46.6875 
L 52.484375 1.125 
Q 52.484375 -10.0625 46.328125 -16.140625 
Q 40.1875 -22.21875 28.8125 -22.21875 
Q 23.6875 -22.21875 19 -21.28125 
Q 14.3125 -20.359375 10.015625 -18.5 
L 10.015625 -7.625 
L 14.703125 -7.625 
Q 15.578125 -12.703125 18.84375 -15.046875 
Q 22.125 -17.390625 28.21875 -17.390625 
Q 36.140625 -17.390625 39.8125 -12.921875 
Q 43.5 -8.453125 43.5 1.125 
L 43.5 8.109375 
Q 40.875 3.21875 36.796875 0.890625 
Q 32.71875 -1.421875 26.703125 -1.421875 
Q 17.140625 -1.421875 11.0625 6.171875 
Q 4.984375 13.765625 4.984375 25.984375 
Q 4.984375 38.1875 11.03125 45.75 
Q 17.09375 53.328125 26.703125 53.328125 
Q 32.71875 53.328125 36.796875 51 
Q 40.875 48.6875 43.5 43.796875 
L 43.5 51.90625 
L 61.078125 51.90625 
L 61.078125 46.6875 
z
M 43.5 28.515625 
Q 43.5 37.84375 39.90625 42.765625 
Q 36.328125 47.703125 29.5 47.703125 
Q 22.5625 47.703125 19.015625 42.234375 
Q 15.484375 36.765625 15.484375 25.984375 
Q 15.484375 15.234375 19.015625 9.71875 
Q 22.5625 4.203125 29.5 4.203125 
Q 36.328125 4.203125 39.90625 9.109375 
Q 43.5 14.015625 43.5 23.390625 
z
" id="DejaVuSerif-103"/>
       <path d="M 20.515625 5.171875 
L 29 5.171875 
L 29 0 
L 2.875 0 
L 2.875 5.171875 
L 11.53125 5.171875 
L 11.53125 70.796875 
L 2.875 70.796875 
L 2.875 75.984375 
L 20.515625 75.984375 
z
" id="DejaVuSerif-108"/>
       <path d="M 48 51.90625 
L 61.28125 11.375 
L 73 46.6875 
L 65.484375 46.6875 
L 65.484375 51.90625 
L 84.28125 51.90625 
L 84.28125 46.6875 
L 78.515625 46.6875 
L 63.09375 0 
L 55.609375 0 
L 42.828125 38.8125 
L 29.984375 0 
L 22.796875 0 
L 7.421875 46.6875 
L 1.609375 46.6875 
L 1.609375 51.90625 
L 25.09375 51.90625 
L 25.09375 46.6875 
L 16.703125 46.6875 
L 28.328125 11.375 
L 41.703125 51.90625 
z
" id="DejaVuSerif-119"/>
      </defs>
      <use xlink:href="#DejaVuSerif-76"/>
      <use x="66.40625" xlink:href="#DejaVuSerif-111"/>
      <use x="126.611328" xlink:href="#DejaVuSerif-109"/>
      <use x="221.435547" xlink:href="#DejaVuSerif-98"/>
      <use x="285.449219" xlink:href="#DejaVuSerif-45"/>
      <use x="319.238281" xlink:href="#DejaVuSerif-83"/>
      <use x="387.744141" xlink:href="#DejaVuSerif-99"/>
      <use x="443.75" xlink:href="#DejaVuSerif-97"/>
      <use x="503.369141" xlink:href="#DejaVuSerif-114"/>
      <use x="551.171875" xlink:href="#DejaVuSerif-103"/>
      <use x="615.185547" xlink:href="#DejaVuSerif-108"/>
      <use x="647.167969" xlink:href="#DejaVuSerif-101"/>
      <use x="706.347656" xlink:href="#DejaVuSerif-32"/>
      <use x="738.134766" xlink:href="#DejaVuSerif-80"/>
      <use x="801.419922" xlink:href="#DejaVuSerif-111"/>
      <use x="861.625" xlink:href="#DejaVuSerif-119"/>
      <use x="947.220703" xlink:href="#DejaVuSerif-101"/>
      <use x="1006.400391" xlink:href="#DejaVuSerif-114"/>
     </g>
    </g>
   </g>
   <g id="line2d_12">
    <path clip-path="url(#pb409dae4b0)" d="M 92.189688 286.299303 
L 725.789688 286.299303 
" style="fill:none;stroke:#000000;stroke-dasharray:1.5,2.475;stroke-dashoffset:0;stroke-width:1.5;"/>
   </g>
   <g id="line2d_13">
    <path clip-path="url(#pb409dae4b0)" d="M 725.789687 339.56769 
L 680.358233 343.998355 
L 640.892473 345.32156 
L 606.289752 342.753643 
L 575.703387 339.730669 
L 548.472464 340.040199 
L 524.073537 342.185917 
L 502.086656 341.32648 
L 482.170989 336.82789 
L 464.047033 332.423969 
L 447.483408 331.076406 
L 432.286932 334.421294 
L 418.295048 338.700238 
L 405.369989 340.517655 
L 382.266873 344.301159 
L 371.900864 342.257625 
L 362.220644 336.281274 
L 353.160337 331.62745 
L 344.662242 333.754354 
L 336.675605 341.172926 
L 329.155601 345.22212 
L 322.062495 336.415118 
L 315.360939 317.600917 
L 309.019383 306.060548 
L 303.009577 309.273053 
L 297.306152 323.200182 
L 291.886262 338.642916 
L 286.729276 345.56683 
L 281.816518 343.263347 
L 277.13104 337.759326 
L 272.657427 334.730369 
L 268.381625 334.568314 
L 264.2908 331.803429 
L 260.373201 326.588916 
L 256.618054 323.705447 
L 253.01546 325.827975 
L 249.556307 333.305413 
L 246.232195 341.105018 
L 243.035369 344.865581 
L 239.958654 345.132255 
L 236.995407 342.283585 
L 234.139464 337.175476 
L 231.385099 331.603305 
L 228.72699 328.60759 
L 226.160175 331.541376 
L 223.680032 338.413983 
L 221.282244 343.601655 
L 218.962775 346.032807 
L 216.71785 341.863482 
L 214.543933 318.407452 
L 212.437706 271.932063 
L 210.396056 204.456675 
L 208.41606 127.5785 
L 206.494964 93.591965 
L 204.63018 98.078528 
L 202.819268 115.052983 
L 201.059926 178.386295 
L 199.349982 276.359683 
L 197.687384 327.678627 
L 196.070194 327.741425 
L 194.496575 316.932093 
L 192.964791 317.876849 
L 191.473195 330.973123 
L 190.020226 341.932147 
L 188.604403 344.327027 
L 187.224318 340.372899 
L 183.285462 324.825865 
L 182.035609 325.703839 
L 180.815433 331.843372 
L 179.623889 336.137685 
L 178.459981 336.598094 
L 177.322759 336.72944 
L 176.211315 339.12717 
L 175.124783 342.649518 
L 174.062335 343.109509 
L 173.023177 338.141961 
L 172.006554 334.511079 
L 171.011739 337.430208 
L 170.038039 343.633841 
L 169.084788 345.068575 
L 168.151348 334.162991 
L 167.237109 316.657561 
L 166.341484 307.216485 
L 165.463911 312.003487 
L 163.760778 342.787423 
L 162.934201 345.878342 
L 162.123639 342.545603 
L 161.328629 341.191217 
L 160.548729 343.474869 
L 159.783513 344.35808 
L 159.032568 340.336077 
L 158.295501 335.348885 
L 157.571929 333.90352 
L 156.861485 335.520838 
L 156.163815 333.238875 
L 154.805445 315.410946 
L 154.144097 316.095627 
L 153.494228 325.600623 
L 152.855541 338.223332 
L 152.227751 345.309964 
L 151.61058 344.643291 
L 151.003761 341.393423 
L 150.407037 340.233028 
L 149.24288 343.522038 
L 148.674972 344.110854 
L 148.116207 344.513602 
L 147.566366 345.321758 
L 147.025236 345.466635 
L 146.492613 343.93303 
L 145.452095 338.60823 
L 144.943821 331.471834 
L 144.443292 312.728304 
L 143.950335 285.293802 
L 143.464777 269.986235 
L 142.986455 285.554394 
L 142.515206 316.993746 
L 142.050876 333.223551 
L 141.593313 333.880044 
L 141.14237 330.576813 
L 140.697905 329.576964 
L 140.259778 333.060478 
L 139.827857 339.308267 
L 139.402008 343.354923 
L 138.982106 342.405425 
L 138.568027 339.072106 
L 138.15965 337.394717 
L 137.756859 337.538514 
L 137.359539 338.545231 
L 136.199315 344.241564 
L 135.822803 345.598196 
L 135.451238 345.617368 
L 135.084522 345.11471 
L 134.722562 345.279482 
L 134.365266 345.901774 
L 134.012543 345.31614 
L 133.664307 342.117499 
L 132.980957 332.350066 
L 132.645679 330.436347 
L 132.31456 330.690589 
L 131.987523 331.733765 
L 131.664493 334.868764 
L 131.030164 343.479198 
L 130.718723 343.772257 
L 130.106949 338.112406 
L 129.806484 339.085906 
L 129.216084 345.062973 
L 128.926025 343.742785 
L 128.355898 337.466497 
L 128.075714 338.017011 
L 127.524832 344.537758 
L 127.254028 346.025165 
L 126.986245 345.601704 
L 126.20053 340.609477 
L 125.944343 340.539141 
L 125.690936 341.168323 
L 125.440266 340.707966 
L 125.192288 339.427552 
L 124.946959 339.375476 
L 124.226447 345.66986 
L 123.528307 333.400419 
L 123.074801 343.074687 
L 122.851514 343.216004 
L 122.630492 334.299147 
L 121.980671 292.518444 
L 121.76837 285.17815 
L 121.558168 282.972572 
L 121.350035 287.287111 
L 120.939853 316.25523 
L 120.737746 330.94249 
L 120.537589 336.710049 
L 120.339355 333.452206 
L 120.143015 327.312997 
L 119.948544 325.40182 
L 119.755913 328.993245 
L 119.188813 345.543951 
L 119.003292 345.254804 
L 118.456932 331.223779 
L 118.278135 333.411407 
L 117.92539 343.030895 
L 117.751398 344.781383 
L 117.578965 344.764021 
L 117.408071 345.203542 
L 117.238693 346.103145 
L 117.070813 345.275627 
L 116.739467 339.647147 
L 116.575962 340.411882 
L 116.253195 345.186611 
L 115.779379 333.776598 
L 115.317546 345.340169 
L 115.016093 337.800675 
L 114.867249 337.527792 
L 114.428059 345.492314 
L 114.28406 345.366664 
L 113.999571 345.96905 
L 113.859053 344.503 
L 113.581399 339.469888 
L 113.444236 340.762475 
L 113.173174 345.18319 
L 112.774545 337.867563 
L 112.385179 346.026262 
L 112.257393 345.613668 
L 112.004756 344.563984 
L 111.879882 344.700713 
L 111.755958 344.108689 
L 111.510912 340.280692 
L 111.150194 332.506903 
L 111.031742 333.973794 
L 110.797457 342.745716 
L 110.681605 342.394666 
L 110.339101 330.855074 
L 109.893878 345.836878 
L 109.46123 341.226333 
L 109.249457 333.075541 
L 109.14468 333.397116 
L 108.834697 343.988383 
L 108.732793 343.540356 
L 108.531078 341.510199 
L 108.431252 341.584373 
L 108.233629 342.710216 
L 108.135818 342.49089 
L 107.846309 338.483438 
L 107.751091 339.87575 
L 107.562547 345.35011 
L 107.469207 345.355103 
L 107.284362 341.881016 
L 107.192845 342.36879 
L 107.011593 345.447662 
L 106.921846 344.874887 
L 106.744083 341.541367 
L 106.656055 341.845157 
L 106.395322 344.583126 
L 106.139506 343.51426 
L 105.971624 344.223012 
L 105.560954 346.055936 
L 105.48033 346.043979 
L 105.241398 344.212056 
L 105.162719 344.497821 
L 105.006781 345.195191 
L 104.85271 344.525889 
L 104.776364 344.578367 
L 104.47548 346.133875 
L 104.327683 345.971676 
L 104.181609 344.807229 
L 103.894508 339.547384 
L 103.823764 340.018161 
L 103.544803 345.527318 
L 103.339705 343.713542 
L 103.138042 346.133068 
L 103.071569 345.889763 
L 102.874354 343.909879 
L 102.680378 345.906788 
L 102.616426 345.456789 
L 102.489564 343.183046 
L 102.426648 343.227789 
L 102.301833 344.993968 
L 102.117112 340.209625 
L 102.056195 340.800485 
L 101.875376 345.911122 
L 101.815738 345.414186 
L 101.697402 344.559711 
L 101.406924 345.959354 
L 101.349729 346.064581 
L 101.292828 345.937031 
L 101.179901 345.279669 
L 101.123871 345.334696 
L 101.012665 346.034176 
L 100.957485 345.569833 
L 100.739537 340.071665 
L 100.578928 345.45315 
L 100.525924 344.858371 
L 100.420702 342.09654 
L 100.368481 342.488079 
L 100.213353 345.449555 
L 100.162149 345.083116 
L 100.111194 344.858583 
L 99.959811 346.053645 
L 99.909837 345.903536 
L 99.614988 343.142006 
L 99.566663 343.611213 
L 99.328441 346.086446 
L 99.188171 346.114275 
L 99.095742 345.177836 
L 98.958695 342.875449 
L 98.778885 346.035428 
L 98.734444 345.603917 
L 98.690205 345.328228 
L 98.646166 345.422963 
L 98.602327 345.61415 
L 98.558686 345.56403 
L 98.515241 345.425545 
L 98.471991 345.571752 
L 98.386071 346.156097 
L 98.343399 345.815222 
L 98.216517 344.124151 
L 98.174597 344.400222 
L 98.091312 345.232609 
L 98.049943 345.222528 
L 97.926921 343.9627 
L 97.88627 344.172528 
L 97.765375 345.255118 
L 97.528232 340.418021 
L 97.450529 336.294347 
L 97.411925 336.495495 
L 97.183698 345.938802 
L 97.146216 346.041696 
L 97.108892 346.006157 
L 96.744037 341.598007 
L 96.70837 341.060349 
L 96.672849 341.638745 
L 96.567146 345.924738 
L 96.497388 344.935522 
L 96.46272 344.269243 
L 96.42819 344.473841 
L 96.359546 345.984742 
L 96.325429 345.766051 
L 96.22389 343.429486 
L 96.190311 343.770722 
L 96.024394 345.607257 
L 95.958934 345.375943 
L 95.861697 344.623969 
L 95.829536 344.750291 
L 95.733795 346.120276 
L 95.702127 345.418678 
L 95.639155 343.485946 
L 95.607849 344.017527 
L 95.545595 346.115981 
L 95.514646 345.614244 
L 95.331392 339.433461 
L 95.271222 340.879513 
L 95.181807 343.644324 
L 95.12275 342.770913 
L 95.00594 340.78787 
L 94.977006 341.573698 
L 94.919456 343.697334 
L 94.862325 342.253794 
L 94.833916 342.049529 
L 94.721306 346.116085 
L 94.637911 345.209983 
L 94.555411 343.141484 
L 94.500901 344.044008 
L 94.473792 344.488392 
L 94.419861 343.60108 
L 94.393038 343.26464 
L 94.366311 343.8008 
L 94.286692 346.13747 
L 94.234077 345.292485 
L 94.181829 343.952799 
L 94.129945 344.973306 
L 94.07842 345.739938 
L 94.052791 344.97666 
L 94.001799 344.115229 
L 93.976434 344.857642 
L 93.925966 345.731859 
L 93.850909 345.618933 
L 93.82606 345.744834 
L 93.75202 342.883431 
L 93.703076 344.529928 
L 93.654462 346.031938 
L 93.582151 345.945348 
L 93.369513 343.274997 
L 93.346276 343.716395 
L 93.30003 345.053929 
L 93.254087 343.287749 
L 93.231228 342.875205 
L 93.208443 343.521688 
L 93.140534 345.795333 
L 93.095627 344.558952 
L 93.006679 339.325535 
L 92.940715 341.594922 
L 92.87538 344.405773 
L 92.83217 342.919893 
L 92.810667 342.572908 
L 92.789233 343.315512 
L 92.746566 345.510219 
L 92.683069 343.2895 
L 92.641069 345.331284 
L 92.59933 343.572337 
L 92.557851 340.810979 
L 92.516629 343.261958 
L 92.374344 345.737224 
L 92.33425 346.115093 
L 92.314295 345.503677 
L 92.137404 340.700214 
L 92.0795 341.041528 
L 91.927606 344.84331 
L 91.908872 344.310919 
L 91.853001 338.780267 
L 91.797621 343.512135 
L 91.760971 344.512023 
L 91.724535 343.128211 
L 91.68831 342.364289 
L 91.652296 343.522543 
L 91.5103 345.676879 
L 91.492779 346.094634 
L 91.457887 344.866908 
L 91.320286 340.176427 
L 91.371521 345.230631 
L 91.303304 340.66508 
L 91.252644 345.429198 
L 91.16915 343.937037 
L 91.070479 345.054501 
L 91.037951 344.729826 
L 90.95741 343.112364 
L 90.925501 343.992562 
L 90.799587 345.357516 
L 90.753067 345.785914 
L 90.722261 346.145393 
L 90.645965 345.791989 
L 90.437641 341.646113 
L 90.408501 343.310687 
L 90.379512 346.077276 
L 90.321985 342.199241 
L 90.279229 345.661483 
L 90.180738 342.776795 
L 90.15292 344.110418 
L 90.111458 345.833313 
L 90.056664 344.209537 
L 90.043052 343.842929 
L 90.002421 345.084611 
L 89.975503 345.752329 
L 89.94872 343.691522 
L 89.908795 339.265057 
L 89.856023 345.220348 
L 89.803772 345.871164 
L 89.790789 345.341646 
L 89.7008 342.528515 
L 89.675371 343.993856 
L 89.57488 345.823698 
L 89.550059 345.034007 
L 89.45196 343.414548 
L 89.488527 346.14266 
L 89.427727 344.294643 
L 89.415653 344.978316 
L 89.367644 342.549252 
L 89.308268 344.975576 
L 89.261267 346.137668 
L 89.226304 345.06273 
L 89.088861 341.664932 
L 89.077579 342.096737 
L 88.933227 346.138686 
L 88.922298 346.137542 
L 88.889661 345.007053 
L 88.857243 342.757516 
L 88.761286 343.185041 
L 88.605551 346.081263 
L 88.59535 346.107749 
L 88.585171 346.014135 
L 88.494552 343.953481 
L 88.454839 344.88949 
L 88.435111 346.132997 
L 88.395906 342.992577 
L 88.34737 345.120775 
L 88.280278 344.502098 
L 88.30891 345.843406 
L 88.261291 345.276221 
L 88.21417 346.124792 
L 88.19546 344.528625 
L 88.167541 338.798642 
L 88.121394 345.990952 
L 88.093934 345.172831 
L 88.075723 345.898404 
L 88.012568 344.018275 
L 88.00362 343.276898 
L 87.94149 345.966098 
L 87.923901 345.740462 
L 87.915133 345.810676 
L 87.906383 345.588516 
L 87.862895 343.146642 
L 87.802743 346.072974 
L 87.78571 345.541879 
L 87.760289 342.342914 
L 87.660101 343.766118 
L 87.635422 344.823178 
L 87.627227 343.267731 
L 87.610887 339.114066 
L 87.570314 345.735849 
L 87.522144 345.028199 
L 87.411889 342.880246 
L 87.443089 346.124859 
L 87.404126 343.734349 
L 87.380926 346.058812 
L 87.327302 341.632934 
L 87.289432 345.362227 
L 87.244453 346.113964 
L 87.214747 344.593637 
L 87.170599 346.13502 
L 87.083757 342.068819 
L 86.991804 346.088008 
L 86.950089 344.957926 
L 86.922529 342.176372 
L 86.854484 345.117565 
L 86.841019 344.664296 
L 86.820912 345.915705 
L 86.800911 343.232384 
L 86.728472 341.022221 
L 86.74809 345.737054 
L 86.708956 344.413836 
L 86.625555 346.054082 
L 86.676656 342.478771 
L 86.612889 343.513224 
L 86.550209 346.149587 
L 86.494704 338.274806 
L 86.476389 342.963079 
L 86.458167 346.110692 
L 86.416005 341.440399 
L 86.362517 344.48134 
L 86.29243 346.115687 
L 86.315638 341.208417 
L 86.275124 342.895638 
L 86.263634 340.844013 
L 86.201105 346.059315 
L 86.178643 345.730266 
L 86.156326 344.504647 
L 86.08478 342.446131 
L 86.112121 346.054568 
L 86.041484 344.235723 
L 86.036111 344.233988 
L 85.993429 345.690378 
L 85.982842 343.969078 
L 85.972288 341.337908 
L 85.889039 346.055037 
L 85.878777 345.462511 
L 85.753141 336.194511 
L 85.782857 346.133048 
L 85.73348 342.462862 
L 85.723694 344.914173 
L 85.723694 344.914173 
" style="fill:none;stroke:#000000;stroke-linecap:square;stroke-width:1.5;"/>
   </g>
   <g id="patch_3">
    <path d="M 92.189688 346.157812 
L 92.189688 17.837812 
" style="fill:none;stroke:#000000;stroke-linecap:square;stroke-linejoin:miter;stroke-width:0.8;"/>
   </g>
   <g id="patch_4">
    <path d="M 725.789688 346.157812 
L 725.789688 17.837812 
" style="fill:none;stroke:#000000;stroke-linecap:square;stroke-linejoin:miter;stroke-width:0.8;"/>
   </g>
   <g id="patch_5">
    <path d="M 92.189688 346.157812 
L 725.789687 346.157812 
" style="fill:none;stroke:#000000;stroke-linecap:square;stroke-linejoin:miter;stroke-width:0.8;"/>
   </g>
   <g id="patch_6">
    <path d="M 92.189688 17.837812 
L 725.789687 17.837812 
" style="fill:none;stroke:#000000;stroke-linecap:square;stroke-linejoin:miter;stroke-width:0.8;"/>
   </g>
  </g>
  <g id="axes_2">
   <g id="patch_7">
    <path d="M 380.189687 164.717812 
L 704.189687 164.717812 
L 704.189687 35.117812 
L 380.189687 35.117812 
z
" style="fill:none;"/>
   </g>
   <g id="matplotlib.axis_3">
    <g id="xtick_6">
     <g id="line2d_14">
      <g>
       <use style="stroke:#000000;stroke-width:0.8;" x="394.326689" xlink:href="#m699733195c" y="164.717812"/>
      </g>
     </g>
     <g id="text_14">
      <!-- 0 -->
      <g transform="translate(385.419189 192.993437)scale(0.28 -0.28)">
       <use xlink:href="#DejaVuSerif-48"/>
      </g>
     </g>
    </g>
    <g id="xtick_7">
     <g id="line2d_15">
      <g>
       <use style="stroke:#000000;stroke-width:0.8;" x="512.380979" xlink:href="#m699733195c" y="164.717812"/>
      </g>
     </g>
     <g id="text_15">
      <!-- 2 -->
      <g transform="translate(503.473479 192.993437)scale(0.28 -0.28)">
       <use xlink:href="#DejaVuSerif-50"/>
      </g>
     </g>
    </g>
    <g id="xtick_8">
     <g id="line2d_16">
      <g>
       <use style="stroke:#000000;stroke-width:0.8;" x="630.43527" xlink:href="#m699733195c" y="164.717812"/>
      </g>
     </g>
     <g id="text_16">
      <!-- 4 -->
      <g transform="translate(621.52777 192.993437)scale(0.28 -0.28)">
       <use xlink:href="#DejaVuSerif-52"/>
      </g>
     </g>
    </g>
    <g id="text_17">
     <!-- Period (days) -->
     <g transform="translate(475.46625 218.013437)scale(0.2 -0.2)">
      <use xlink:href="#DejaVuSerif-80"/>
      <use x="62.785156" xlink:href="#DejaVuSerif-101"/>
      <use x="121.964844" xlink:href="#DejaVuSerif-114"/>
      <use x="169.767578" xlink:href="#DejaVuSerif-105"/>
      <use x="201.75" xlink:href="#DejaVuSerif-111"/>
      <use x="261.955078" xlink:href="#DejaVuSerif-100"/>
      <use x="325.96875" xlink:href="#DejaVuSerif-32"/>
      <use x="357.755859" xlink:href="#DejaVuSerif-40"/>
      <use x="396.769531" xlink:href="#DejaVuSerif-100"/>
      <use x="460.783203" xlink:href="#DejaVuSerif-97"/>
      <use x="520.402344" xlink:href="#DejaVuSerif-121"/>
      <use x="576.896484" xlink:href="#DejaVuSerif-115"/>
      <use x="628.214844" xlink:href="#DejaVuSerif-41"/>
     </g>
    </g>
   </g>
   <g id="matplotlib.axis_4">
    <g id="ytick_7">
     <g id="line2d_17">
      <g>
       <use style="stroke:#000000;stroke-width:0.8;" x="380.189687" xlink:href="#mee3f2d5e4f" y="118.622824"/>
      </g>
     </g>
     <g id="text_18">
      <!-- 0.5 -->
      <g transform="translate(328.660937 129.260636)scale(0.28 -0.28)">
       <defs>
        <path d="M 50.296875 72.90625 
L 50.296875 64.890625 
L 16.890625 64.890625 
L 16.890625 44 
Q 19.4375 45.75 22.828125 46.625 
Q 26.21875 47.515625 30.421875 47.515625 
Q 42.234375 47.515625 49.0625 40.96875 
Q 55.90625 34.421875 55.90625 23.09375 
Q 55.90625 11.53125 49 5.046875 
Q 42.09375 -1.421875 29.59375 -1.421875 
Q 24.5625 -1.421875 19.28125 -0.1875 
Q 14.015625 1.03125 8.5 3.515625 
L 8.5 17.671875 
L 14.015625 17.671875 
Q 14.453125 10.75 18.421875 7.078125 
Q 22.40625 3.421875 29.59375 3.421875 
Q 37.3125 3.421875 41.453125 8.5 
Q 45.609375 13.578125 45.609375 23.09375 
Q 45.609375 32.5625 41.484375 37.609375 
Q 37.359375 42.671875 29.59375 42.671875 
Q 25.203125 42.671875 21.84375 41.109375 
Q 18.5 39.546875 15.921875 36.28125 
L 11.71875 36.28125 
L 11.71875 72.90625 
z
" id="DejaVuSerif-53"/>
       </defs>
       <use xlink:href="#DejaVuSerif-48"/>
       <use x="63.623047" xlink:href="#DejaVuSerif-46"/>
       <use x="95.410156" xlink:href="#DejaVuSerif-53"/>
      </g>
     </g>
    </g>
    <g id="ytick_8">
     <g id="line2d_18">
      <g>
       <use style="stroke:#000000;stroke-width:0.8;" x="380.189687" xlink:href="#mee3f2d5e4f" y="51.780089"/>
      </g>
     </g>
     <g id="text_19">
      <!-- 1.0 -->
      <g transform="translate(328.660937 62.417902)scale(0.28 -0.28)">
       <use xlink:href="#DejaVuSerif-49"/>
       <use x="63.623047" xlink:href="#DejaVuSerif-46"/>
       <use x="95.410156" xlink:href="#DejaVuSerif-48"/>
      </g>
     </g>
    </g>
    <g id="text_20">
     <!-- $\Theta$ -->
     <g transform="translate(320.501562 107.817812)rotate(-90)scale(0.2 -0.2)">
      <defs>
       <path d="M 22.125 42.96875 
L 56.59375 42.96875 
L 56.59375 34.671875 
L 22.125 34.671875 
z
M 39.40625 66.21875 
Q 28.65625 66.21875 22.359375 58.203125 
Q 16.015625 50.203125 16.015625 36.375 
Q 16.015625 22.609375 22.328125 14.59375 
Q 28.65625 6.59375 39.40625 6.59375 
Q 50.140625 6.59375 56.453125 14.59375 
Q 62.703125 22.609375 62.703125 36.375 
Q 62.703125 50.203125 56.453125 58.203125 
Q 50.140625 66.21875 39.40625 66.21875 
z
M 39.40625 74.21875 
Q 54.734375 74.21875 63.90625 63.9375 
Q 73.09375 53.65625 73.09375 36.375 
Q 73.09375 19.140625 63.921875 8.890625 
Q 54.734375 -1.421875 39.40625 -1.421875 
Q 24.03125 -1.421875 14.84375 8.84375 
Q 5.609375 19.09375 5.609375 36.375 
Q 5.609375 53.65625 14.84375 63.96875 
Q 24.03125 74.21875 39.40625 74.21875 
z
" id="DejaVuSans-920"/>
      </defs>
      <use transform="translate(0 0.78125)" xlink:href="#DejaVuSans-920"/>
     </g>
    </g>
   </g>
   <g id="line2d_19">
    <path clip-path="url(#p460e76cd28)" d="M 394.91696 63.89704 
L 395.507232 48.992138 
L 396.687775 43.362198 
L 397.278046 53.019603 
L 397.868317 43.029407 
L 398.458589 45.564896 
L 399.04886 42.936677 
L 399.639132 48.691032 
L 400.229403 53.104513 
L 400.819675 69.618209 
L 401.409946 42.946218 
L 402.000218 52.597806 
L 402.590489 44.322155 
L 403.180761 44.3507 
L 403.771032 43.700018 
L 404.361303 50.242748 
L 404.951575 44.282749 
L 406.132118 52.590706 
L 406.722389 45.221151 
L 407.312661 46.28296 
L 407.902932 41.738454 
L 408.493204 42.905837 
L 409.083475 55.474203 
L 409.673747 44.139993 
L 410.264018 45.320167 
L 410.854289 46.219091 
L 412.034832 42.779332 
L 412.625104 42.367694 
L 413.215375 43.243441 
L 413.805647 53.153767 
L 414.395918 46.012574 
L 414.98619 42.145836 
L 415.576461 44.310088 
L 416.166732 48.388843 
L 416.757004 45.886647 
L 417.347275 46.171284 
L 417.937547 50.299054 
L 418.527818 46.829269 
L 419.11809 41.86759 
L 419.708361 48.683003 
L 420.298633 47.269342 
L 420.888904 42.701973 
L 422.069447 47.000539 
L 422.659718 49.80321 
L 423.24999 48.534886 
L 423.840261 48.912506 
L 424.430533 42.200193 
L 425.020804 44.471836 
L 425.611076 45.445406 
L 426.201347 44.751101 
L 426.791619 47.77798 
L 427.38189 46.318049 
L 427.972162 43.952161 
L 428.562433 50.69336 
L 429.152704 47.162941 
L 429.742976 47.21189 
L 430.333247 56.883287 
L 430.923519 42.361549 
L 431.51379 54.195276 
L 432.104062 52.080553 
L 432.694333 67.836783 
L 433.284605 62.633769 
L 433.874876 47.595341 
L 434.465148 46.621874 
L 435.055419 48.957308 
L 435.64569 41.240803 
L 436.235962 50.458679 
L 436.826233 47.164937 
L 437.416505 45.175812 
L 438.006776 41.008722 
L 439.187319 49.200418 
L 440.367862 44.482051 
L 440.958133 47.542021 
L 441.548405 47.066629 
L 442.138676 48.033532 
L 442.728948 53.886901 
L 443.319219 49.005096 
L 443.909491 48.736968 
L 444.499762 44.420337 
L 445.090034 43.134584 
L 445.680305 42.663913 
L 446.270577 48.580825 
L 446.860848 46.316674 
L 447.451119 46.381217 
L 448.041391 47.43622 
L 448.631662 49.978182 
L 449.221934 50.820253 
L 449.812205 50.418788 
L 450.402477 51.975589 
L 450.992748 54.374784 
L 451.58302 50.243703 
L 452.173291 62.631537 
L 452.763563 80.699314 
L 453.353834 77.812118 
L 453.944105 58.450207 
L 454.534377 46.233678 
L 455.124648 48.219561 
L 455.71492 43.941125 
L 456.305191 46.084779 
L 456.895463 49.26118 
L 457.485734 45.269093 
L 458.076006 45.111213 
L 458.666277 46.816359 
L 459.256548 50.306002 
L 459.84682 49.164536 
L 460.437091 43.218612 
L 461.027363 45.835273 
L 462.207906 52.996451 
L 462.798177 62.60894 
L 463.388449 55.894804 
L 463.97872 52.878701 
L 464.568992 51.318451 
L 465.159263 56.785997 
L 465.749534 57.14257 
L 466.339806 61.421039 
L 466.930077 46.846317 
L 467.520349 44.032194 
L 468.11062 50.21465 
L 468.700892 54.469098 
L 469.291163 52.247515 
L 469.881435 51.193972 
L 470.471706 54.632804 
L 471.061978 65.823866 
L 471.652249 69.479322 
L 472.24252 67.665393 
L 472.832792 58.694341 
L 474.013335 61.731907 
L 474.603606 57.072309 
L 475.193878 55.316786 
L 475.784149 50.099185 
L 476.374421 50.805035 
L 476.964692 43.011661 
L 477.554964 45.72153 
L 478.145235 49.099933 
L 478.735506 54.616876 
L 479.325778 56.721685 
L 479.916049 50.696011 
L 480.506321 46.117917 
L 481.096592 45.591891 
L 481.686864 45.824149 
L 482.277135 51.112725 
L 483.457678 48.194568 
L 484.047949 53.135721 
L 484.638221 47.837604 
L 485.228492 44.753089 
L 485.818764 46.742793 
L 486.409035 51.820056 
L 486.999307 51.532308 
L 487.589578 57.833275 
L 488.17985 55.390036 
L 488.770121 57.047723 
L 489.360393 59.432596 
L 489.950664 56.31303 
L 490.540935 57.141812 
L 491.131207 55.67832 
L 491.721478 51.389503 
L 492.31175 54.982323 
L 492.902021 48.050596 
L 493.492293 48.943317 
L 494.082564 46.121997 
L 494.672836 46.745936 
L 495.263107 43.495969 
L 495.853379 45.379283 
L 496.44365 47.660583 
L 497.033921 55.988953 
L 497.624193 53.030472 
L 498.214464 56.322089 
L 498.804736 56.224697 
L 499.395007 57.79813 
L 499.985279 62.841932 
L 501.756093 56.810335 
L 502.346364 57.947056 
L 502.936636 60.339583 
L 503.526907 66.832597 
L 504.117179 78.114602 
L 504.70745 95.986294 
L 505.297722 108.208436 
L 505.887993 128.028743 
L 506.478265 138.900923 
L 507.068536 143.288718 
L 507.658808 150.237295 
L 508.249079 151.814982 
L 508.83935 148.817525 
L 509.429622 147.749022 
L 510.019893 150.203565 
L 510.610165 156.459159 
L 511.200436 158.826903 
L 511.790708 154.046685 
L 512.380979 150.640761 
L 512.971251 129.048919 
L 513.561522 119.615071 
L 514.151794 107.829103 
L 514.742065 92.203893 
L 516.512879 69.407622 
L 517.693422 50.515939 
L 518.283694 50.275769 
L 518.873965 53.05073 
L 519.464237 50.683445 
L 520.054508 56.322652 
L 520.64478 46.381053 
L 521.235051 42.251606 
L 521.825322 45.634858 
L 522.415594 45.034863 
L 523.005865 47.359936 
L 523.596137 45.518631 
L 524.186408 53.48899 
L 524.77668 49.148863 
L 525.366951 49.099027 
L 525.957223 46.349941 
L 526.547494 48.024028 
L 527.137765 50.563492 
L 528.318308 58.351717 
L 528.90858 55.025637 
L 529.498851 58.268804 
L 530.089123 60.121739 
L 530.679394 60.767374 
L 531.269666 68.925551 
L 531.859937 64.740198 
L 532.450209 64.759168 
L 533.04048 60.369089 
L 533.630751 62.637918 
L 534.221023 57.398273 
L 534.811294 53.6691 
L 535.401566 55.738596 
L 535.991837 54.266916 
L 536.582109 70.248823 
L 537.17238 62.936637 
L 537.762652 66.976005 
L 538.352923 60.99353 
L 538.943195 60.888224 
L 539.533466 60.287885 
L 540.123737 53.178664 
L 540.714009 56.998553 
L 541.30428 50.47971 
L 541.894552 53.836255 
L 542.484823 52.397751 
L 543.075095 52.706893 
L 543.665366 54.165903 
L 544.255638 47.24013 
L 544.845909 54.227662 
L 545.43618 47.135753 
L 546.026452 51.088442 
L 546.616723 53.02997 
L 547.206995 57.2967 
L 547.797266 53.452488 
L 548.387538 57.531415 
L 548.977809 60.165181 
L 549.568081 60.903282 
L 550.158352 67.351505 
L 550.748624 63.768397 
L 551.338895 64.306214 
L 551.929166 70.503755 
L 552.519438 67.196435 
L 553.109709 69.34123 
L 553.699981 65.423442 
L 554.290252 67.768855 
L 554.880524 66.841838 
L 555.470795 68.180975 
L 556.061067 67.698194 
L 556.651338 60.521985 
L 557.24161 64.521501 
L 557.831881 59.189494 
L 558.422152 55.3305 
L 559.012424 53.235099 
L 559.602695 54.050824 
L 560.192967 54.033645 
L 560.783238 59.942112 
L 561.37351 57.037921 
L 561.963781 64.244435 
L 562.554053 58.50919 
L 563.734595 55.444877 
L 564.324867 54.537924 
L 564.915138 58.239566 
L 565.50541 57.844863 
L 566.685953 52.556488 
L 567.276224 50.88641 
L 567.866496 57.296246 
L 568.456767 72.672645 
L 569.047039 73.999393 
L 569.63731 74.97842 
L 570.227581 79.462225 
L 570.817853 71.839468 
L 571.408124 79.054908 
L 571.998396 76.844315 
L 572.588667 71.670115 
L 573.178939 79.045361 
L 573.76921 63.846278 
L 574.359482 65.604113 
L 574.949753 56.503639 
L 575.540025 54.252136 
L 577.310839 49.422073 
L 577.90111 57.939177 
L 578.491382 57.369996 
L 579.081653 54.679296 
L 579.671925 61.926021 
L 580.262196 48.717359 
L 580.852468 46.555037 
L 581.442739 64.40931 
L 582.033011 51.922749 
L 582.623282 58.822549 
L 583.213553 57.219473 
L 583.803825 54.322783 
L 584.394096 63.314192 
L 584.984368 58.436116 
L 585.574639 55.740525 
L 586.164911 59.196079 
L 586.755182 72.192311 
L 587.345454 61.328832 
L 587.935725 60.322628 
L 588.525996 76.214379 
L 589.116268 57.886925 
L 589.706539 60.495619 
L 590.296811 60.8315 
L 590.887082 60.424484 
L 591.477354 54.491814 
L 592.067625 55.111633 
L 592.657897 54.239469 
L 593.248168 55.389433 
L 593.83844 54.838057 
L 594.428711 54.485465 
L 595.018982 61.036903 
L 595.609254 60.920389 
L 596.199525 61.092624 
L 596.789797 63.662291 
L 597.380068 69.023299 
L 597.97034 69.644473 
L 598.560611 70.052054 
L 599.150883 70.763377 
L 599.741154 74.387734 
L 600.331426 73.479159 
L 600.921697 78.169339 
L 601.511968 77.014937 
L 602.692511 85.114194 
L 603.282783 76.672898 
L 603.873054 77.097611 
L 604.463326 75.581729 
L 605.053597 72.813682 
L 605.643869 74.767697 
L 606.23414 72.839132 
L 606.824411 74.339249 
L 607.414683 72.778123 
L 608.004954 74.714694 
L 608.595226 70.941298 
L 609.185497 71.849484 
L 609.775769 66.837152 
L 610.36604 71.622721 
L 610.956312 70.769839 
L 611.546583 63.177258 
L 612.136855 70.945833 
L 612.727126 75.768878 
L 613.317397 76.090283 
L 613.907669 75.887392 
L 614.49794 86.999375 
L 615.088212 94.659361 
L 615.678483 97.67908 
L 616.268755 106.224043 
L 616.859026 121.667571 
L 617.449298 128.388906 
L 618.039569 137.349782 
L 619.220112 135.491971 
L 619.810383 141.267655 
L 620.400655 143.060047 
L 620.990926 153.24821 
L 621.581198 145.441458 
L 622.761741 151.073927 
L 623.352012 150.806923 
L 623.942284 154.294981 
L 624.532555 153.166981 
L 625.122827 148.450845 
L 625.713098 142.446838 
L 626.303369 149.194358 
L 626.893641 144.592786 
L 627.483912 155.655466 
L 628.074184 149.843626 
L 628.664455 149.524882 
L 629.844998 142.6899 
L 630.43527 144.243736 
L 631.025541 132.237532 
L 631.615812 131.360597 
L 632.206084 123.651224 
L 632.796355 125.970486 
L 633.386627 123.08985 
L 634.56717 113.412101 
L 635.157441 102.427531 
L 635.747713 96.408295 
L 636.337984 93.476119 
L 636.928256 101.337686 
L 637.518527 81.173062 
L 638.108798 81.492971 
L 638.69907 65.921759 
L 639.289341 66.770516 
L 639.879613 69.355944 
L 640.469884 64.34396 
L 641.060156 67.072576 
L 641.650427 63.548645 
L 642.240699 57.919258 
L 643.421242 65.020116 
L 644.011513 57.978573 
L 644.601784 57.081012 
L 645.192056 58.686538 
L 645.782327 48.426759 
L 646.372599 51.621989 
L 646.96287 59.143576 
L 647.553142 62.52489 
L 648.143413 56.537298 
L 648.733685 57.313257 
L 649.323956 56.240353 
L 649.914227 57.135575 
L 650.504499 51.37595 
L 651.09477 59.177837 
L 651.685042 53.168682 
L 652.275313 56.388455 
L 652.865585 49.306519 
L 653.455856 53.170835 
L 654.046128 58.675187 
L 654.636399 54.591638 
L 655.226671 57.47097 
L 655.816942 57.079347 
L 656.407213 55.603442 
L 656.997485 56.187951 
L 657.587756 59.811401 
L 658.178028 58.503291 
L 658.768299 59.406123 
L 659.358571 59.019369 
L 659.948842 58.254702 
L 660.539114 59.3654 
L 661.129385 65.720117 
L 661.719657 64.119964 
L 662.309928 65.872805 
L 662.900199 63.750947 
L 663.490471 61.027443 
L 664.080742 67.714506 
L 664.671014 58.926467 
L 665.261285 64.522881 
L 665.851557 64.644927 
L 666.441828 72.104405 
L 667.0321 64.63721 
L 667.622371 64.650271 
L 668.802914 60.569933 
L 669.393185 73.607211 
L 669.983457 63.639072 
L 670.573728 62.307833 
L 671.164 65.184145 
L 671.754271 65.293125 
L 672.344543 66.835302 
L 672.934814 66.091861 
L 673.525086 62.380111 
L 674.115357 63.124295 
L 674.705628 58.75009 
L 675.2959 65.773791 
L 675.886171 65.4222 
L 676.476443 55.739982 
L 677.066714 61.572734 
L 677.656986 52.773383 
L 678.247257 63.313292 
L 678.837529 56.901416 
L 679.4278 70.822996 
L 680.608343 52.785655 
L 681.198614 69.017729 
L 681.788886 71.512812 
L 682.379157 69.435392 
L 682.969429 70.350383 
L 683.5597 73.373214 
L 684.149972 71.544643 
L 684.740243 54.976523 
L 685.330515 61.004905 
L 685.920786 75.458942 
L 687.101329 47.42684 
L 687.6916 62.78099 
L 688.281872 69.857174 
L 688.872143 54.23925 
L 689.462415 45.920305 
L 689.462415 45.920305 
" style="fill:none;stroke:#000000;stroke-linecap:square;stroke-width:1.5;"/>
   </g>
   <g id="patch_8">
    <path d="M 380.189687 164.717812 
L 380.189687 35.117812 
" style="fill:none;stroke:#000000;stroke-linecap:square;stroke-linejoin:miter;stroke-width:0.8;"/>
   </g>
   <g id="patch_9">
    <path d="M 704.189687 164.717812 
L 704.189687 35.117812 
" style="fill:none;stroke:#000000;stroke-linecap:square;stroke-linejoin:miter;stroke-width:0.8;"/>
   </g>
   <g id="patch_10">
    <path d="M 380.189687 164.717812 
L 704.189687 164.717812 
" style="fill:none;stroke:#000000;stroke-linecap:square;stroke-linejoin:miter;stroke-width:0.8;"/>
   </g>
   <g id="patch_11">
    <path d="M 380.189687 35.117812 
L 704.189687 35.117812 
" style="fill:none;stroke:#000000;stroke-linecap:square;stroke-linejoin:miter;stroke-width:0.8;"/>
   </g>
  </g>
 </g>
 <defs>
  <clipPath id="pb409dae4b0">
   <rect height="328.32" width="633.6" x="92.189688" y="17.837812"/>
  </clipPath>
  <clipPath id="p460e76cd28">
   <rect height="129.6" width="324" x="380.189687" y="35.117812"/>
  </clipPath>
 </defs>
</svg>
